<?xml version="1.0" standalone="no"?>
<!DOCTYPE svg PUBLIC "-//W3C//DTD SVG 20010904//EN"
 "http://www.w3.org/TR/2001/REC-SVG-20010904/DTD/svg10.dtd">
<svg version="1.0" xmlns="http://www.w3.org/2000/svg"
 width="512.000000pt" height="512.000000pt" viewBox="0 0 512.000000 512.000000"
 preserveAspectRatio="xMidYMid meet">
<metadata>
Created by potrace 1.11, written by Peter Selinger 2001-2013
</metadata>
<g transform="translate(0.000000,512.000000) scale(0.100000,-0.100000)"
fill="#000000" stroke="none">
<path d="M1062 4897 c-42 -13 -98 -69 -118 -116 -24 -56 -14 -141 22 -193 45
-64 72 -75 302 -124 17 -3 22 -10 18 -20 -6 -15 -51 -225 -62 -284 -2 -14 -7
-36 -10 -50 -3 -14 -8 -36 -10 -50 -3 -14 -12 -54 -20 -90 -8 -36 -17 -76 -20
-90 -3 -14 -8 -34 -10 -45 -25 -111 -8 -171 57 -208 25 -14 37 -27 34 -37 -2
-8 -12 -49 -20 -90 -9 -41 -18 -82 -20 -90 -2 -8 -15 -69 -29 -135 -55 -262
-88 -421 -91 -436 -2 -9 -13 -61 -25 -115 -12 -55 -23 -108 -26 -119 -15 -75
-15 -75 -46 -75 -50 0 -106 -38 -123 -84 -12 -33 -56 -226 -79 -346 -5 -30
-62 -298 -76 -355 -5 -22 -14 -61 -19 -87 -25 -109 1 -167 96 -212 3 -2 -25
-118 -29 -122 -2 -2 -31 -4 -64 -5 -172 -4 -308 -63 -429 -184 -124 -125 -183
-267 -183 -442 0 -279 204 -533 478 -597 393 -90 772 220 755 619 -2 49 -5 97
-7 105 -3 8 -8 30 -12 49 -21 87 -92 206 -168 277 -48 46 -134 104 -191 128
-20 8 -37 19 -37 24 0 29 24 122 32 122 21 0 117 -46 178 -86 205 -134 329
-347 345 -594 8 -120 35 -174 115 -223 l35 -22 1110 -2 c611 -1 1112 -2 1115
-2 3 -1 21 -32 39 -71 39 -82 122 -176 200 -229 115 -76 193 -102 331 -106
200 -7 356 61 488 212 102 116 154 263 147 418 -4 112 -10 145 -42 220 -118
281 -415 434 -713 367 -162 -36 -303 -140 -392 -287 -19 -33 -39 -70 -43 -82
-4 -16 -15 -23 -33 -24 -97 -3 -122 -4 -122 -2 0 5 41 110 53 133 26 56 93
147 146 199 145 142 340 221 538 216 160 -4 269 -36 403 -119 79 -50 127 -54
166 -15 15 16 28 42 31 65 4 33 1 45 -21 71 -47 55 -246 156 -356 179 -19 4
-37 8 -40 9 -19 5 -125 17 -173 19 -74 4 -223 -18 -307 -45 -302 -96 -533
-328 -631 -634 -12 -38 -25 -72 -30 -75 -9 -6 -1537 -5 -1543 1 -3 2 -7 16
-10 31 -25 140 -105 328 -196 464 -108 159 -306 328 -487 414 -40 19 -73 40
-73 46 0 11 10 60 55 264 8 36 17 76 19 90 3 14 8 36 11 50 4 14 9 49 12 78 5
44 2 58 -20 91 -14 21 -39 44 -56 51 -17 7 -29 16 -26 20 2 3 7 22 10 41 3 19
17 86 31 149 14 63 31 147 39 185 8 39 37 176 65 305 28 129 52 246 55 259 23
125 25 131 55 131 38 0 91 26 112 55 10 13 29 75 42 138 27 125 32 146 41 192
4 17 20 93 36 170 17 77 32 149 35 160 16 80 14 78 48 72 17 -4 40 -8 51 -11
11 -2 54 -11 95 -20 41 -9 93 -20 115 -26 149 -36 267 34 289 171 12 77 -46
183 -118 213 -28 11 -48 16 -135 32 -12 3 -51 11 -85 19 -33 8 -76 17 -93 20
-18 3 -61 12 -95 20 -35 8 -76 14 -93 13 -42 -2 -101 10 -160 33 -62 24 -324
79 -368 78 -18 -1 -47 -6 -65 -12z"/>
</g>
</svg>
